<?xml version="1.0" standalone="no"?>
<!DOCTYPE svg PUBLIC "-//W3C//DTD SVG 20010904//EN"
 "http://www.w3.org/TR/2001/REC-SVG-20010904/DTD/svg10.dtd">
<svg version="1.0" xmlns="http://www.w3.org/2000/svg"
 width="620.000000pt" height="620.000000pt" viewBox="0 0 620.000000 620.000000"
 preserveAspectRatio="xMidYMid meet">
<metadata>
Created by potrace 1.11, written by Peter Selinger 2001-2013
</metadata>
<g transform="translate(0.000000,620.000000) scale(0.100000,-0.100000)"
fill="#000000" stroke="none">
<path d="M2937 5177 c-184 -168 -415 -438 -549 -642 -83 -127 -161 -271 -153
-284 3 -6 154 -10 404 -11 l399 0 6 307 c3 170 8 401 11 516 4 142 2 207 -5
207 -6 0 -57 -42 -113 -93z"/>
<path d="M3207 5263 c-2 -4 -8 -236 -12 -514 l-7 -506 32 -7 c35 -6 790 -9
790 -2 0 5 -66 133 -96 185 -43 78 -201 310 -262 385 -150 186 -433 479 -445
459z"/>
<path d="M2730 5243 c-14 -2 -78 -18 -144 -34 -368 -93 -704 -283 -981 -555
-126 -123 -315 -370 -301 -393 4 -7 138 -10 382 -11 l375 0 18 44 c54 125 227
394 364 566 46 58 140 167 210 242 70 75 127 139 127 142 0 6 -8 6 -50 -1z"/>
<path d="M3470 5235 c0 -4 33 -42 74 -84 237 -244 440 -530 594 -837 l41 -81
77 -6 c100 -9 684 -9 684 -1 0 11 -68 112 -133 199 -195 259 -458 478 -749
623 -146 72 -223 102 -383 147 -128 37 -205 52 -205 40z"/>
<path d="M67 3943 c-4 -6 -9 -350 -13 -766 l-7 -757 150 0 150 0 6 338 c4 185
7 427 7 537 l0 200 51 -90 c28 -49 97 -173 154 -275 56 -102 144 -259 195
-350 51 -91 105 -189 122 -218 16 -29 41 -74 57 -100 l27 -47 162 -3 162 -2 1
237 c1 131 4 470 8 753 4 283 4 518 1 522 -3 4 -71 10 -151 14 l-146 7 -6
-249 c-4 -137 -7 -375 -7 -529 l0 -280 -58 105 c-88 158 -204 367 -302 540
-48 85 -118 212 -156 282 l-69 128 -91 0 c-50 0 -125 3 -166 6 -46 4 -78 3
-81 -3z"/>
<path d="M1596 3763 c-3 -93 -9 -434 -12 -759 l-6 -591 88 -6 c49 -4 310 -7
579 -8 l490 0 8 127 c5 90 4 131 -4 140 -9 11 -88 14 -420 14 l-409 0 0 190 0
190 373 2 372 3 3 133 3 132 -318 0 c-175 0 -342 3 -370 6 l-53 7 0 152 0 153
400 -6 400 -5 0 140 0 140 -367 6 c-203 4 -454 7 -559 7 l-192 0 -6 -167z"/>
<path d="M5410 3924 c-235 -43 -372 -136 -438 -297 -68 -165 -39 -366 65 -457
71 -62 265 -141 458 -185 39 -9 115 -30 170 -47 80 -25 107 -38 138 -68 33
-34 37 -43 37 -91 0 -99 -57 -146 -211 -177 -69 -13 -92 -14 -156 -3 -157 26
-230 87 -252 211 l-6 35 -155 0 -155 0 3 -45 c8 -122 64 -242 149 -321 215
-201 699 -211 943 -18 110 87 155 199 148 368 -5 114 -22 168 -74 236 -51 67
-225 149 -409 193 -251 61 -371 104 -399 144 -32 46 -13 158 33 196 29 24 96
49 146 55 154 20 317 -59 346 -166 6 -23 13 -47 15 -54 2 -8 47 -13 154 -15
83 -2 154 -2 159 0 11 4 -6 108 -25 157 -33 81 -50 109 -99 163 -109 121 -249
180 -445 187 -63 2 -126 2 -140 -1z"/>
<path d="M2880 3902 c0 -9 5 -33 11 -52 5 -19 39 -145 75 -280 36 -135 82
-303 101 -375 19 -71 45 -170 58 -220 13 -49 40 -151 60 -225 20 -74 48 -179
61 -233 36 -149 20 -137 194 -137 l150 0 6 28 c3 15 8 34 11 42 3 8 18 78 33
155 29 143 62 301 126 600 20 94 44 208 53 255 20 95 20 94 46 -55 8 -49 22
-121 30 -160 9 -38 27 -131 41 -205 14 -74 38 -202 54 -285 15 -82 38 -199 49
-259 12 -60 23 -111 25 -113 2 -2 73 -5 157 -6 l154 -2 22 80 c33 117 66 233
108 375 20 69 52 179 71 245 77 269 94 325 129 445 20 69 44 150 52 180 8 30
23 83 35 118 11 35 18 65 16 68 -3 2 -76 7 -164 10 l-160 7 -22 -84 c-12 -46
-35 -141 -52 -211 -16 -71 -43 -183 -60 -250 -38 -158 -76 -318 -103 -438
l-22 -95 -12 60 c-12 60 -45 234 -104 550 -54 291 -87 456 -90 460 -2 1 -80 5
-174 6 l-170 4 -12 -55 c-16 -70 -78 -370 -108 -520 -62 -312 -99 -489 -103
-486 -4 5 -27 100 -64 271 -16 77 -42 199 -58 270 -15 72 -42 195 -59 275 -17
80 -37 168 -43 196 l-11 52 -51 6 c-28 3 -104 6 -168 6 -106 0 -118 -2 -118
-18z"/>
<path d="M1278 2065 c-17 -18 155 -254 284 -390 209 -221 471 -399 758 -514
147 -59 382 -121 458 -121 22 0 13 13 -69 98 -246 254 -415 480 -562 747 -36
66 -73 132 -81 148 l-15 27 -228 0 c-125 0 -298 3 -383 6 -85 4 -158 3 -162
-1z"/>
<path d="M2230 2047 c0 -7 23 -53 51 -102 109 -191 238 -371 402 -560 98 -114
314 -331 321 -324 2 2 8 223 12 491 6 413 5 488 -7 492 -8 2 -186 7 -396 11
-316 5 -383 3 -383 -8z"/>
<path d="M3177 2043 c-3 -5 -9 -229 -13 -498 -6 -419 -5 -487 7 -480 63 38
355 338 480 495 108 134 309 440 309 470 0 6 -82 10 -217 10 -120 0 -295 3
-389 7 -107 4 -173 2 -177 -4z"/>
<path d="M4084 1943 c-68 -127 -183 -300 -289 -438 -89 -116 -312 -364 -390
-434 -21 -19 -34 -36 -27 -39 19 -6 192 27 306 59 411 116 773 351 1055 684
81 95 171 223 171 242 0 11 -70 13 -389 13 l-389 0 -48 -87z"/>
</g>
</svg>
